<?xml version="1.0" encoding="UTF-8" standalone="no"?>
<!DOCTYPE svg PUBLIC "-//W3C//DTD SVG 1.1//EN" "http://www.w3.org/Graphics/SVG/1.1/DTD/svg11.dtd">
<svg width="100%" height="100%" viewBox="0 0 1674 1674" version="1.1" xmlns="http://www.w3.org/2000/svg" xmlns:xlink="http://www.w3.org/1999/xlink" xml:space="preserve" xmlns:serif="http://www.serif.com/" style="fill-rule:evenodd;clip-rule:evenodd;stroke-linecap:square;stroke-linejoin:round;stroke-miterlimit:1;">
    <g transform="matrix(1,0,0,1,-109.583,-90.5203)">
        <g transform="matrix(1.16655,0,0,1.16655,-478.44,35.0316)">
            <path d="M1828.75,56.496C1884.67,56.496 1930,101.826 1930,157.744L1930,1372.25C1930,1428.17 1884.67,1473.5 1828.75,1473.5L614.248,1473.5C558.33,1473.5 513,1428.17 513,1372.25L513,157.744C513,101.826 558.33,56.496 614.248,56.496L1828.75,56.496Z" style="stroke:white;stroke-width:17.86px;"/>
        </g>
        <g transform="matrix(1,0,0,1,-275,44.3543)">
            <path d="M513,1473.5C513,1473.5 512.969,938.722 512.949,590.471C512.939,428.364 643.621,296.562 805.722,295.188C806.647,295.18 807.571,295.173 808.496,295.165C886.373,294.505 961.287,324.979 1016.59,379.815C1071.89,434.651 1103,509.304 1103,587.184L1103,587.185L867,587.185L867,587.183C867,554.867 840.802,528.669 808.486,528.669L808.055,528.669C775.44,528.669 749,555.109 749,587.724L749,1473.5L513,1473.5Z" style="fill:white;"/>
            <path d="M1103,599.685L867,599.685C867,599.685 854.5,598.957 854.5,587.183C854.5,561.77 833.899,541.169 808.486,541.169L808.055,541.169C782.343,541.169 761.5,562.013 761.5,587.724L761.5,1473.5L749,1486L513,1486L500.5,1473.5L500.449,590.471C500.439,421.502 636.653,284.12 805.616,282.689L808.39,282.665C889.6,281.977 967.722,313.756 1025.39,370.939C1083.06,428.122 1115.5,505.971 1115.5,587.184C1115.5,598.966 1103,599.685 1103,599.685ZM513,1473.5L749,1473.5L749,587.724C749,555.109 775.44,528.669 808.055,528.669L808.486,528.669C840.802,528.669 867,554.867 867,587.183L867,587.185L1103,587.185C1103,509.305 1071.89,434.651 1016.59,379.815C961.287,324.979 886.373,294.505 808.496,295.165L805.722,295.188C643.621,296.562 512.939,428.364 512.949,590.471L513,1473.5Z"/>
        </g>
        <g transform="matrix(-1,0,0,1,2167.97,44.3543)">
            <path d="M513,1473.5C513,1473.5 512.969,938.722 512.949,590.471C512.939,428.364 643.621,296.562 805.722,295.188C806.647,295.18 807.571,295.173 808.496,295.165C886.373,294.505 961.287,324.979 1016.59,379.815C1071.89,434.651 1103,509.304 1103,587.184L1103,587.185L867,587.185L867,587.183C867,554.867 840.802,528.669 808.486,528.669L808.055,528.669C775.44,528.669 749,555.109 749,587.724L749,1473.5L513,1473.5Z" style="fill:white;"/>
            <path d="M867,599.685L1103,599.685C1103,599.685 1115.5,575.402 1115.5,587.184C1115.5,505.971 1083.06,428.122 1025.39,370.939C967.722,313.756 889.6,281.977 808.39,282.665L805.616,282.689C636.653,284.12 500.439,421.502 500.449,590.471L500.5,1473.5C500.5,1480.4 506.097,1486 513,1486L749,1486C755.904,1486 761.5,1480.4 761.5,1473.5L761.5,587.724C761.5,562.013 782.343,541.169 808.055,541.169L808.486,541.169C833.899,541.169 854.5,561.77 854.5,587.183C854.5,598.957 867,599.685 867,599.685ZM513,1473.5L512.949,590.471C512.939,428.364 643.621,296.562 805.722,295.188L808.496,295.165C886.373,294.505 961.287,324.979 1016.59,379.815C1071.89,434.651 1103,509.305 1103,587.185L867,587.185L867,587.183C867,554.867 840.802,528.669 808.486,528.669L808.055,528.669C775.44,528.669 749,555.109 749,587.724L749,1473.5L513,1473.5Z"/>
        </g>
        <g transform="matrix(1,0,0,1,-274.974,44.3543)">
            <path d="M866.974,622.969L1102.97,622.969C1102.97,622.969 1102.99,940.641 1103,1119.06C1103,1184.29 1155.88,1237.16 1221.11,1237.16L1221.34,1237.16C1286.52,1237.16 1339.38,1184.36 1339.45,1119.17C1339.62,940.774 1339.94,622.969 1339.94,622.969L1575.94,622.969C1575.94,622.969 1575.96,885.719 1575.98,1119.14C1575.98,1213.12 1538.65,1303.25 1472.2,1369.71C1405.75,1436.16 1315.62,1473.5 1221.64,1473.5L1221.32,1473.5C1025.63,1473.5 866.995,1314.86 866.989,1119.18C866.982,885.746 866.974,622.969 866.974,622.969Z" style="fill:white;"/>
            <path d="M866.974,610.469L1102.97,610.469C1109.88,610.469 1115.47,616.065 1115.47,622.968L1115.5,1119.06C1115.5,1177.38 1162.78,1224.66 1221.11,1224.66L1221.34,1224.66C1279.62,1224.66 1326.89,1177.45 1326.95,1119.16L1327.44,622.956C1327.45,616.057 1333.04,610.469 1339.94,610.469L1575.94,610.469C1582.84,610.469 1588.44,616.064 1588.44,622.968L1588.48,1119.14C1588.48,1216.43 1549.84,1309.75 1481.04,1378.55C1412.25,1447.34 1318.94,1486 1221.64,1486L1221.32,1486C1018.73,1486 854.495,1321.77 854.489,1119.18L854.474,622.969C854.474,619.654 855.791,616.474 858.135,614.13C860.479,611.786 863.659,610.469 866.974,610.469ZM866.974,622.969L866.989,1119.18C866.995,1314.86 1025.63,1473.5 1221.32,1473.5L1221.64,1473.5C1315.62,1473.5 1405.75,1436.16 1472.2,1369.71C1538.65,1303.25 1575.98,1213.12 1575.98,1119.14L1575.94,622.969L1339.94,622.969L1339.45,1119.17C1339.38,1184.36 1286.52,1237.16 1221.34,1237.16L1221.11,1237.16C1155.88,1237.16 1103,1184.29 1103,1119.06L1102.97,622.969L866.974,622.969Z"/>
        </g>
    </g>
</svg>
