<?xml version="1.0" encoding="UTF-8" standalone="no"?>
<!DOCTYPE svg PUBLIC "-//W3C//DTD SVG 1.1//EN" "http://www.w3.org/Graphics/SVG/1.1/DTD/svg11.dtd">
<svg width="100%" height="100%" viewBox="0 0 1701 1701" version="1.1" xmlns="http://www.w3.org/2000/svg" xmlns:xlink="http://www.w3.org/1999/xlink" xml:space="preserve" xmlns:serif="http://www.serif.com/" style="fill-rule:evenodd;clip-rule:evenodd;stroke-linejoin:round;stroke-miterlimit:2;">
    <g transform="matrix(1,0,0,1,-96.4298,-77.3668)">
        <g>
            <g transform="matrix(1.16655,0,0,1.16655,-478.44,35.0316)">
                <path d="M1828.75,42.209C1892.56,42.209 1944.29,93.936 1944.29,157.744L1944.29,1372.25C1944.29,1436.06 1892.56,1487.78 1828.75,1487.78L614.248,1487.78C550.439,1487.78 498.713,1436.06 498.713,1372.25L498.713,157.744C498.713,93.936 550.439,42.209 614.248,42.209L1828.75,42.209ZM1828.75,56.496L614.248,56.496C558.33,56.496 513,101.826 513,157.744L513,1372.25C513,1428.17 558.33,1473.5 614.248,1473.5L1828.75,1473.5C1884.67,1473.5 1930,1428.17 1930,1372.25L1930,157.744C1930,101.826 1884.67,56.496 1828.75,56.496Z" style="fill:rgb(116,128,255);"/>
            </g>
            <g>
                <g transform="matrix(1,0,0,1,-275,44.3543)">
                    <path d="M513,1473.5C513,1473.5 512.969,938.722 512.949,590.471C512.939,428.364 643.621,296.562 805.722,295.188C806.647,295.18 807.571,295.173 808.496,295.165C886.373,294.505 961.287,324.979 1016.59,379.815C1071.89,434.651 1103,509.304 1103,587.184L1103,587.185L867,587.185L867,587.183C867,554.867 840.802,528.669 808.486,528.669L808.055,528.669C775.44,528.669 749,555.109 749,587.724L749,1473.5L513,1473.5Z" style="fill:rgb(116,128,255);"/>
                </g>
                <g transform="matrix(-1,0,0,1,2167.97,44.3543)">
                    <path d="M513,1473.5C513,1473.5 512.969,938.722 512.949,590.471C512.939,428.364 643.621,296.562 805.722,295.188C806.647,295.18 807.571,295.173 808.496,295.165C886.373,294.505 961.287,324.979 1016.59,379.815C1071.89,434.651 1103,509.304 1103,587.184L1103,587.185L867,587.185L867,587.183C867,554.867 840.802,528.669 808.486,528.669L808.055,528.669C775.44,528.669 749,555.109 749,587.724L749,1473.5L513,1473.5Z" style="fill:rgb(116,128,255);"/>
                </g>
                <g transform="matrix(1,0,0,1,-274.974,44.3543)">
                    <path d="M866.974,622.969L1102.97,622.969C1102.97,622.969 1102.99,940.641 1103,1119.06C1103,1184.29 1155.88,1237.16 1221.11,1237.16L1221.34,1237.16C1286.52,1237.16 1339.38,1184.36 1339.45,1119.17C1339.62,940.774 1339.94,622.969 1339.94,622.969L1575.94,622.969C1575.94,622.969 1575.96,885.719 1575.98,1119.14C1575.98,1213.12 1538.65,1303.25 1472.2,1369.71C1405.75,1436.16 1315.62,1473.5 1221.64,1473.5L1221.32,1473.5C1025.63,1473.5 866.995,1314.86 866.989,1119.18C866.982,885.746 866.974,622.969 866.974,622.969Z" style="fill:rgb(116,128,255);"/>
                </g>
            </g>
        </g>
    </g>
</svg>
