<?xml version="1.0" encoding="UTF-8" standalone="no"?>
<!DOCTYPE svg PUBLIC "-//W3C//DTD SVG 1.1//EN" "http://www.w3.org/Graphics/SVG/1.1/DTD/svg11.dtd">
<svg width="100%" height="100%" viewBox="0 0 1678 2172" version="1.1" xmlns="http://www.w3.org/2000/svg" xmlns:xlink="http://www.w3.org/1999/xlink" xml:space="preserve" xmlns:serif="http://www.serif.com/" style="fill-rule:evenodd;clip-rule:evenodd;stroke-linecap:square;stroke-linejoin:round;stroke-miterlimit:1;">
    <g transform="matrix(1,0,0,1,-107.556,-173.851)">
        <g transform="matrix(1.16693,0,0,1.51499,-478.925,100.415)">
            <path d="M1828.79,56.496C1855.63,56.496 1881.37,64.71 1900.36,79.33C1919.34,93.951 1930,113.781 1930,134.457C1930,381.943 1930,1148.05 1930,1395.54C1930,1416.21 1919.34,1436.04 1900.36,1450.66C1881.37,1465.28 1855.63,1473.5 1828.79,1473.5L614.214,1473.5C587.371,1473.5 561.626,1465.28 542.645,1450.66C523.664,1436.04 513,1416.21 513,1395.54C513,1148.05 513,381.943 513,134.457C513,113.781 523.664,93.951 542.645,79.33C561.626,64.71 587.371,56.496 614.214,56.496C875.052,56.496 1567.95,56.496 1828.79,56.496Z" style="stroke:white;stroke-width:17.98px;"/>
        </g>
        <g transform="matrix(1,0,0,1,-275,44.3543)">
            <path d="M513,1473.5C513,1473.5 512.969,938.722 512.949,590.471C512.939,428.364 643.621,296.562 805.722,295.188C806.647,295.18 807.571,295.173 808.496,295.165C886.373,294.505 961.287,324.979 1016.59,379.815C1071.89,434.651 1103,509.304 1103,587.184L1103,587.185L867,587.185L867,587.183C867,554.867 840.802,528.669 808.486,528.669L808.055,528.669C775.44,528.669 749,555.109 749,587.724L749,1473.5L513,1473.5Z" style="fill:white;"/>
            <path d="M1103,599.685L867,599.685C867,599.685 854.5,598.957 854.5,587.183C854.5,561.77 833.899,541.169 808.486,541.169L808.055,541.169C782.343,541.169 761.5,562.013 761.5,587.724L761.5,1473.5L749,1486L513,1486L500.5,1473.5L500.449,590.471C500.439,421.502 636.653,284.12 805.616,282.689L808.39,282.665C889.6,281.977 967.722,313.756 1025.39,370.939C1083.06,428.122 1115.5,505.971 1115.5,587.184C1115.5,598.966 1103,599.685 1103,599.685ZM513,1473.5L749,1473.5L749,587.724C749,555.109 775.44,528.669 808.055,528.669L808.486,528.669C840.802,528.669 867,554.867 867,587.183L867,587.185L1103,587.185C1103,509.305 1071.89,434.651 1016.59,379.815C961.287,324.979 886.373,294.505 808.496,295.165L805.722,295.188C643.621,296.562 512.939,428.364 512.949,590.471L513,1473.5Z"/>
        </g>
        <g transform="matrix(-1,0,0,1,2167.97,44.3543)">
            <path d="M513,1473.5C513,1473.5 512.969,938.722 512.949,590.471C512.939,428.364 643.621,296.562 805.722,295.188C806.647,295.18 807.571,295.173 808.496,295.165C886.373,294.505 961.287,324.979 1016.59,379.815C1071.89,434.651 1103,509.304 1103,587.184L1103,587.185L867,587.185L867,587.183C867,554.867 840.802,528.669 808.486,528.669L808.055,528.669C775.44,528.669 749,555.109 749,587.724L749,1473.5L513,1473.5Z" style="fill:white;"/>
            <path d="M867,599.685L1103,599.685C1103,599.685 1115.5,575.402 1115.5,587.184C1115.5,505.971 1083.06,428.122 1025.39,370.939C967.722,313.756 889.6,281.977 808.39,282.665L805.616,282.689C636.653,284.12 500.439,421.502 500.449,590.471L500.5,1473.5C500.5,1480.4 506.097,1486 513,1486L749,1486C755.904,1486 761.5,1480.4 761.5,1473.5L761.5,587.724C761.5,562.013 782.343,541.169 808.055,541.169L808.486,541.169C833.899,541.169 854.5,561.77 854.5,587.183C854.5,598.957 867,599.685 867,599.685ZM513,1473.5L512.949,590.471C512.939,428.364 643.621,296.562 805.722,295.188L808.496,295.165C886.373,294.505 961.287,324.979 1016.59,379.815C1071.89,434.651 1103,509.305 1103,587.185L867,587.185L867,587.183C867,554.867 840.802,528.669 808.486,528.669L808.055,528.669C775.44,528.669 749,555.109 749,587.724L749,1473.5L513,1473.5Z"/>
        </g>
        <g transform="matrix(1,0,0,1,-274.974,44.3543)">
            <path d="M866.974,622.969L1102.97,622.969C1102.97,622.969 1102.99,940.641 1103,1119.06C1103,1184.29 1155.88,1237.16 1221.11,1237.16L1221.34,1237.16C1286.52,1237.16 1339.38,1184.36 1339.45,1119.17C1339.62,940.774 1339.94,622.969 1339.94,622.969L1575.94,622.969C1575.94,622.969 1575.96,885.719 1575.98,1119.14C1575.98,1213.12 1538.65,1303.25 1472.2,1369.71C1405.75,1436.16 1315.62,1473.5 1221.64,1473.5L1221.32,1473.5C1025.63,1473.5 866.995,1314.86 866.989,1119.18C866.982,885.746 866.974,622.969 866.974,622.969Z" style="fill:white;"/>
            <path d="M866.974,610.469L1102.97,610.469C1109.88,610.469 1115.47,616.065 1115.47,622.968L1115.5,1119.06C1115.5,1177.38 1162.78,1224.66 1221.11,1224.66L1221.34,1224.66C1279.62,1224.66 1326.89,1177.45 1326.95,1119.16L1327.44,622.956C1327.45,616.057 1333.04,610.469 1339.94,610.469L1575.94,610.469C1582.84,610.469 1588.44,616.064 1588.44,622.968L1588.48,1119.14C1588.48,1216.43 1549.84,1309.75 1481.04,1378.55C1412.25,1447.34 1318.94,1486 1221.64,1486L1221.32,1486C1018.73,1486 854.495,1321.77 854.489,1119.18L854.474,622.969C854.474,619.654 855.791,616.474 858.135,614.13C860.479,611.786 863.659,610.469 866.974,610.469ZM866.974,622.969L866.989,1119.18C866.995,1314.86 1025.63,1473.5 1221.32,1473.5L1221.64,1473.5C1315.62,1473.5 1405.75,1436.16 1472.2,1369.71C1538.65,1303.25 1575.98,1213.12 1575.98,1119.14L1575.94,622.969L1339.94,622.969L1339.45,1119.17C1339.38,1184.36 1286.52,1237.16 1221.34,1237.16L1221.11,1237.16C1155.88,1237.16 1103,1184.29 1103,1119.06L1102.97,622.969L866.974,622.969Z"/>
        </g>
        <g transform="matrix(1,0,0,1,-274.983,64.1943)">
            <path d="M512.931,2114.84L512.931,1671.82C512.931,1632.69 528.475,1595.16 556.143,1567.5C583.811,1539.83 621.337,1524.29 660.465,1524.29L660.466,1524.29C741.947,1524.29 808,1590.34 808,1671.82L808,1967.28C808,1975.11 811.111,1982.62 816.648,1988.16C822.186,1993.7 829.696,1996.81 837.528,1996.81C837.542,1996.81 837.557,1996.81 837.571,1996.81C845.402,1996.81 852.913,1993.7 858.45,1988.16C863.988,1982.62 867.099,1975.11 867.099,1967.28C867.099,1863.87 867.099,1524.29 867.099,1524.29L985.041,1524.29L985.041,1967.3C985.041,2006.43 969.498,2043.96 941.83,2071.62C914.162,2099.29 876.636,2114.84 837.507,2114.84L837.506,2114.84C756.026,2114.84 689.972,2048.78 689.972,1967.3L689.972,1671.82C689.972,1655.52 676.762,1642.31 660.466,1642.31C660.466,1642.31 660.465,1642.31 660.465,1642.31C644.169,1642.31 630.959,1655.52 630.959,1671.82C630.959,1775.2 630.959,2114.84 630.959,2114.84L512.931,2114.84Z" style="fill:white;"/>
            <path d="M496.264,2114.84L496.264,1671.82C496.264,1628.27 513.564,1586.51 544.358,1555.71C575.151,1524.92 616.917,1507.62 660.466,1507.62C751.151,1507.62 824.667,1581.13 824.667,1671.82L824.667,1967.28C824.667,1970.69 826.022,1973.96 828.434,1976.38C830.845,1978.79 834.117,1980.14 837.528,1980.14L837.571,1980.14C840.982,1980.14 844.253,1978.79 846.665,1976.38C849.077,1973.96 850.432,1970.69 850.432,1967.28L850.432,1524.29C850.432,1515.08 857.894,1507.62 867.099,1507.62L985.041,1507.62C994.246,1507.62 1001.71,1515.08 1001.71,1524.29L1001.71,1967.3C1001.71,2010.85 984.408,2052.62 953.615,2083.41C922.821,2114.2 881.056,2131.5 837.507,2131.5C746.821,2131.5 673.306,2057.99 673.306,1967.3L673.306,1671.82C673.306,1664.73 667.557,1658.98 660.466,1658.98L660.465,1658.98C653.374,1658.98 647.625,1664.73 647.625,1671.82L647.625,2114.84C647.625,2124.04 640.163,2131.5 630.959,2131.5L512.931,2131.5C503.726,2131.5 496.264,2124.04 496.264,2114.84ZM512.931,2114.84L630.959,2114.84L630.959,1671.82C630.959,1655.52 644.169,1642.31 660.465,1642.31L660.466,1642.31C676.762,1642.31 689.972,1655.52 689.972,1671.82L689.972,1967.3C689.972,2048.78 756.026,2114.84 837.507,2114.84C876.635,2114.84 914.162,2099.29 941.83,2071.62C969.498,2043.96 985.041,2006.43 985.041,1967.3L985.041,1524.29L867.099,1524.29L867.099,1967.28C867.099,1975.11 863.988,1982.62 858.45,1988.16C852.913,1993.7 845.402,1996.81 837.571,1996.81L837.528,1996.81C829.696,1996.81 822.186,1993.7 816.648,1988.16C811.111,1982.62 808,1975.11 808,1967.28L808,1671.82C808,1590.34 741.946,1524.29 660.466,1524.29C621.337,1524.29 583.811,1539.83 556.143,1567.5C528.475,1595.16 512.931,1632.69 512.931,1671.82L512.931,2114.84Z"/>
        </g>
        <g transform="matrix(1,0,0,1,-274.983,64.1943)">
            <path d="M1077.81,2115.04L1077.81,1672.13C1077.81,1590.59 1143.91,1524.49 1225.44,1524.49L1402.51,1524.49L1402.51,1642.52L1225.34,1642.52C1217.52,1642.52 1210.01,1645.63 1204.48,1651.16C1198.94,1656.69 1195.84,1664.2 1195.84,1672.03C1195.84,1672.03 1195.84,1672.03 1195.84,1672.03C1195.84,1679.85 1198.94,1687.36 1204.48,1692.89C1210.01,1698.42 1217.52,1701.53 1225.34,1701.53C1282.45,1701.53 1402.51,1701.53 1402.51,1701.53L1402.51,1819.56L1225.36,1819.56C1217.53,1819.56 1210.02,1822.67 1204.48,1828.21C1198.95,1833.75 1195.84,1841.26 1195.84,1849.09C1195.84,1923.91 1195.84,2115.04 1195.84,2115.04L1077.81,2115.04Z" style="fill:white;"/>
            <path d="M1061.14,2115.04L1061.14,1672.13C1061.14,1581.39 1134.7,1507.83 1225.44,1507.83L1402.51,1507.83C1411.71,1507.83 1419.17,1515.29 1419.17,1524.49L1419.17,1642.52C1419.17,1651.72 1411.71,1659.19 1402.51,1659.19L1225.34,1659.19C1221.94,1659.19 1218.67,1660.54 1216.26,1662.95C1213.86,1665.35 1212.5,1668.62 1212.5,1672.03L1212.5,1672.03C1212.5,1675.43 1213.86,1678.7 1216.26,1681.11C1218.67,1683.51 1221.94,1684.87 1225.34,1684.87L1402.51,1684.87C1411.71,1684.87 1419.17,1692.33 1419.17,1701.53L1419.17,1819.56C1419.17,1828.77 1411.71,1836.23 1402.51,1836.23L1225.36,1836.23C1221.95,1836.23 1218.68,1837.58 1216.27,1839.99C1213.86,1842.41 1212.5,1845.68 1212.5,1849.09L1212.5,2115.04C1212.5,2124.25 1205.04,2131.71 1195.84,2131.71L1077.81,2131.71C1068.6,2131.71 1061.14,2124.25 1061.14,2115.04ZM1077.81,2115.04L1195.84,2115.04L1195.84,1849.09C1195.84,1841.26 1198.95,1833.75 1204.48,1828.21C1210.02,1822.67 1217.53,1819.56 1225.36,1819.56L1402.51,1819.56L1402.51,1701.53L1225.34,1701.53C1217.52,1701.53 1210.01,1698.42 1204.48,1692.89C1198.94,1687.36 1195.84,1679.85 1195.84,1672.03L1195.84,1672.03C1195.84,1664.2 1198.94,1656.69 1204.48,1651.16C1210.01,1645.63 1217.52,1642.52 1225.34,1642.52L1402.51,1642.52L1402.51,1524.49L1225.44,1524.49C1143.91,1524.49 1077.81,1590.59 1077.81,1672.13L1077.81,2115.04Z"/>
        </g>
        <g transform="matrix(1,0,0,1,-274.983,64.1943)">
            <path d="M1486.98,1524.49L1930,1524.49L1930,1642.52C1930,1642.52 1843.88,1642.52 1797.03,1642.52C1789.2,1642.52 1781.69,1645.63 1776.15,1651.17C1770.62,1656.7 1767.51,1664.22 1767.51,1672.05C1767.51,1775.46 1767.51,2115.04 1767.51,2115.04L1649.48,2115.04L1649.48,1672.05C1649.48,1664.22 1646.37,1656.7 1640.83,1651.17C1635.29,1645.63 1627.78,1642.52 1619.95,1642.52C1573.1,1642.52 1486.98,1642.52 1486.98,1642.52L1486.98,1524.49Z" style="fill:white;"/>
            <path d="M1486.98,1507.83L1930,1507.83C1939.2,1507.83 1946.67,1515.29 1946.67,1524.49L1946.67,1642.52C1946.67,1651.72 1939.2,1659.19 1930,1659.19L1797.03,1659.19C1793.62,1659.19 1790.35,1660.54 1787.94,1662.95C1785.53,1665.37 1784.17,1668.64 1784.17,1672.05L1784.17,2115.04C1784.17,2124.25 1776.71,2131.71 1767.51,2131.71L1649.48,2131.71C1640.27,2131.71 1632.81,2124.25 1632.81,2115.04L1632.81,1672.05C1632.81,1668.64 1631.46,1665.37 1629.04,1662.95C1626.63,1660.54 1623.36,1659.19 1619.95,1659.19L1486.98,1659.19C1477.78,1659.19 1470.32,1651.72 1470.32,1642.52L1470.32,1524.49C1470.32,1515.29 1477.78,1507.83 1486.98,1507.83ZM1486.98,1524.49L1486.98,1642.52L1619.95,1642.52C1627.78,1642.52 1635.29,1645.63 1640.83,1651.17C1646.37,1656.7 1649.48,1664.22 1649.48,1672.05L1649.48,2115.04L1767.51,2115.04L1767.51,1672.05C1767.51,1664.22 1770.62,1656.7 1776.15,1651.17C1781.69,1645.63 1789.2,1642.52 1797.03,1642.52L1930,1642.52L1930,1524.49L1486.98,1524.49Z"/>
        </g>
    </g>
</svg>
