<?xml version="1.0" encoding="UTF-8" standalone="no"?>
<!DOCTYPE svg PUBLIC "-//W3C//DTD SVG 1.1//EN" "http://www.w3.org/Graphics/SVG/1.1/DTD/svg11.dtd">
<svg width="100%" height="100%" viewBox="0 0 1701 2194" version="1.1" xmlns="http://www.w3.org/2000/svg" xmlns:xlink="http://www.w3.org/1999/xlink" xml:space="preserve" xmlns:serif="http://www.serif.com/" style="fill-rule:evenodd;clip-rule:evenodd;stroke-linejoin:round;stroke-miterlimit:2;">
    <g transform="matrix(1,0,0,1,-96.1411,-162.435)">
        <g transform="matrix(1.16693,0,0,1.51499,-478.925,100.415)">
            <path d="M1828.79,45.495C1859.42,45.495 1888.79,54.868 1910.45,71.551C1932.11,88.235 1944.28,110.863 1944.28,134.457L1944.28,1395.54C1944.28,1419.13 1932.11,1441.76 1910.45,1458.44C1888.79,1475.12 1859.42,1484.5 1828.79,1484.5L614.214,1484.5C583.583,1484.5 554.206,1475.12 532.546,1458.44C510.886,1441.76 498.718,1419.13 498.718,1395.54L498.718,134.457C498.718,110.863 510.886,88.235 532.546,71.551C554.206,54.868 583.583,45.495 614.214,45.495L1828.79,45.495ZM1828.79,56.496L614.214,56.496C587.371,56.496 561.626,64.71 542.645,79.33C523.664,93.951 513,113.781 513,134.457L513,1395.54C513,1416.21 523.664,1436.04 542.645,1450.66C561.626,1465.28 587.371,1473.5 614.214,1473.5L1828.79,1473.5C1855.63,1473.5 1881.37,1465.28 1900.36,1450.66C1919.34,1436.04 1930,1416.21 1930,1395.54L1930,134.457C1930,113.781 1919.34,93.951 1900.36,79.33C1881.37,64.71 1855.63,56.496 1828.79,56.496Z" style="fill:rgb(116,128,255);"/>
        </g>
        <g transform="matrix(1,0,0,1,-274.983,64.1943)">
            <path d="M512.931,2114.84L512.931,1671.82C512.931,1632.69 528.475,1595.16 556.143,1567.5C583.811,1539.83 621.337,1524.29 660.465,1524.29L660.466,1524.29C741.947,1524.29 808,1590.34 808,1671.82L808,1967.28C808,1975.11 811.111,1982.62 816.648,1988.16C822.186,1993.7 829.696,1996.81 837.528,1996.81C837.542,1996.81 837.557,1996.81 837.571,1996.81C845.402,1996.81 852.913,1993.7 858.45,1988.16C863.988,1982.62 867.099,1975.11 867.099,1967.28C867.099,1863.87 867.099,1524.29 867.099,1524.29L985.041,1524.29L985.041,1967.3C985.041,2006.43 969.498,2043.96 941.83,2071.62C914.162,2099.29 876.636,2114.84 837.507,2114.84L837.506,2114.84C756.026,2114.84 689.972,2048.78 689.972,1967.3L689.972,1671.82C689.972,1655.52 676.762,1642.31 660.466,1642.31C660.466,1642.31 660.465,1642.31 660.465,1642.31C644.169,1642.31 630.959,1655.52 630.959,1671.82C630.959,1775.2 630.959,2114.84 630.959,2114.84L512.931,2114.84Z" style="fill:rgb(116,128,255);"/>
        </g>
        <g transform="matrix(1,0,0,1,-274.983,64.1943)">
            <path d="M1077.81,2115.04L1077.81,1672.13C1077.81,1590.59 1143.91,1524.49 1225.44,1524.49L1402.51,1524.49L1402.51,1642.52L1225.34,1642.52C1217.52,1642.52 1210.01,1645.63 1204.48,1651.16C1198.94,1656.69 1195.84,1664.2 1195.84,1672.03C1195.84,1672.03 1195.84,1672.03 1195.84,1672.03C1195.84,1679.85 1198.94,1687.36 1204.48,1692.89C1210.01,1698.42 1217.52,1701.53 1225.34,1701.53C1282.45,1701.53 1402.51,1701.53 1402.51,1701.53L1402.51,1819.56L1225.36,1819.56C1217.53,1819.56 1210.02,1822.67 1204.48,1828.21C1198.95,1833.75 1195.84,1841.26 1195.84,1849.09C1195.84,1923.91 1195.84,2115.04 1195.84,2115.04L1077.81,2115.04Z" style="fill:rgb(116,128,255);"/>
        </g>
        <g transform="matrix(1,0,0,1,-274.983,64.1943)">
            <path d="M1486.98,1524.49L1930,1524.49L1930,1642.52C1930,1642.52 1843.88,1642.52 1797.03,1642.52C1789.2,1642.52 1781.69,1645.63 1776.15,1651.17C1770.62,1656.7 1767.51,1664.22 1767.51,1672.05C1767.51,1775.46 1767.51,2115.04 1767.51,2115.04L1649.48,2115.04L1649.48,1672.05C1649.48,1664.22 1646.37,1656.7 1640.83,1651.17C1635.29,1645.63 1627.78,1642.52 1619.95,1642.52C1573.1,1642.52 1486.98,1642.52 1486.98,1642.52L1486.98,1524.49Z" style="fill:rgb(116,128,255);"/>
        </g>
        <g transform="matrix(1,0,0,1,-275,44.3543)">
            <path d="M513,1473.5C513,1473.5 512.969,938.722 512.949,590.471C512.939,428.364 643.621,296.562 805.722,295.188C806.647,295.18 807.571,295.173 808.496,295.165C886.373,294.505 961.287,324.979 1016.59,379.815C1071.89,434.651 1103,509.304 1103,587.184L1103,587.185L867,587.185L867,587.183C867,554.867 840.802,528.669 808.486,528.669L808.055,528.669C775.44,528.669 749,555.109 749,587.724L749,1473.5L513,1473.5Z" style="fill:rgb(116,128,255);"/>
        </g>
        <g transform="matrix(-1,0,0,1,2167.97,44.3543)">
            <path d="M513,1473.5C513,1473.5 512.969,938.722 512.949,590.471C512.939,428.364 643.621,296.562 805.722,295.188C806.647,295.18 807.571,295.173 808.496,295.165C886.373,294.505 961.287,324.979 1016.59,379.815C1071.89,434.651 1103,509.304 1103,587.184L1103,587.185L867,587.185L867,587.183C867,554.867 840.802,528.669 808.486,528.669L808.055,528.669C775.44,528.669 749,555.109 749,587.724L749,1473.5L513,1473.5Z" style="fill:rgb(116,128,255);"/>
        </g>
        <g transform="matrix(1,0,0,1,-274.974,44.3543)">
            <path d="M866.974,622.969L1102.97,622.969C1102.97,622.969 1102.99,940.641 1103,1119.06C1103,1184.29 1155.88,1237.16 1221.11,1237.16L1221.34,1237.16C1286.52,1237.16 1339.38,1184.36 1339.45,1119.17C1339.62,940.774 1339.94,622.969 1339.94,622.969L1575.94,622.969C1575.94,622.969 1575.96,885.719 1575.98,1119.14C1575.98,1213.12 1538.65,1303.25 1472.2,1369.71C1405.75,1436.16 1315.62,1473.5 1221.64,1473.5L1221.32,1473.5C1025.63,1473.5 866.995,1314.86 866.989,1119.18C866.982,885.746 866.974,622.969 866.974,622.969Z" style="fill:rgb(116,128,255);"/>
        </g>
    </g>
</svg>
